<svg width="53" height="46" viewBox="0 0 53 46" fill="none" xmlns="http://www.w3.org/2000/svg">
<path d="M20.6601 30.878L14.025 24.3156C13.2856 23.5844 12.1103 23.5844 11.3709 24.3156C10.6316 25.0468 10.6316 26.2093 11.3709 26.9405L19.3141 34.7966C20.0535 35.5278 21.2478 35.5278 21.9871 34.7966L42.0821 14.9408C42.8215 14.2096 42.8215 13.0471 42.0821 12.3159C41.3428 11.5846 40.1674 11.5846 39.4281 12.3159L20.6601 30.878Z" fill="black"/>
<path d="M52.5 23C52.5 35.3623 40.9282 45.5 26.5 45.5C12.0718 45.5 0.5 35.3623 0.5 23C0.5 10.6377 12.0718 0.5 26.5 0.5C40.9282 0.5 52.5 10.6377 52.5 23Z" fill="#D9D9D9" fill-opacity="0.05" stroke="black"/>
</svg>
